<svg width="225" height="225" viewBox="0 0 225 225" fill="none" xmlns="http://www.w3.org/2000/svg">
<path d="M99.5896 52.618C103.483 39.8795 121.517 39.8795 125.41 52.618L132.049 74.3357C132.648 76.2976 133.687 78.097 135.086 79.5972L150.575 96.2049C159.66 105.946 150.644 121.564 137.665 118.566L115.538 113.456C113.539 112.995 111.461 112.995 109.462 113.456L87.3351 118.566C74.3565 121.564 65.3397 105.946 74.4247 96.2049L89.9137 79.5972C91.3129 78.097 92.3518 76.2976 92.9515 74.3357L99.5896 52.618Z" fill="url(#paint0_angular_0_262)"/>
<path opacity="0.8" d="M140.754 72.8172L112.5 121.755L84.2459 72.8172H140.754Z" stroke="white" stroke-width="1.125"/>
<path d="M17.9957 151.448H25.5483L39.6905 186.88H31.8337L28.7924 179.175H14.7516L11.7103 186.88H3.80288L17.9957 151.448ZM26.7648 173.042L21.7467 159.559L16.7285 173.042H26.7648ZM47.7911 158.798C46.6084 158.798 45.6115 158.41 44.8005 157.632C43.9895 156.855 43.584 155.875 43.584 154.692C43.584 153.543 43.9895 152.58 44.8005 151.803C45.6115 150.992 46.6084 150.587 47.7911 150.587C48.9401 150.587 49.9201 150.992 50.7311 151.803C51.5421 152.58 51.9476 153.543 51.9476 154.692C51.9476 155.875 51.5421 156.855 50.7311 157.632C49.9201 158.41 48.9401 158.798 47.7911 158.798ZM41.3537 198.589C39.4613 198.589 37.9406 198.335 36.7917 197.829V191.695C37.6703 192.134 38.7686 192.354 40.0865 192.354C41.3706 192.354 42.3337 192.033 42.9757 191.391C43.6178 190.749 43.9388 189.735 43.9388 188.35V162.549H51.5928V189.211C51.5928 192.32 50.6635 194.652 48.8049 196.206C46.9463 197.795 44.4626 198.589 41.3537 198.589ZM57.7566 149.421H65.4106V165.337C66.5596 164.154 67.8606 163.276 69.3136 162.701C70.7667 162.093 72.3212 161.789 73.977 161.789C77.2887 161.789 79.7555 162.684 81.3775 164.475C83.0334 166.233 83.8613 168.615 83.8613 171.622V186.88H76.2073V172.484C76.2073 169.341 74.7542 167.77 71.8481 167.77C70.564 167.77 69.3643 168.091 68.2492 168.733C67.134 169.341 66.1878 170.254 65.4106 171.47V186.88H57.7566V149.421ZM103.439 187.64C98.7756 187.64 95.1092 186.525 92.4396 184.295C89.77 182.031 88.4351 178.871 88.4351 174.816C88.4351 170.795 89.6179 167.618 91.9834 165.286C94.3826 162.955 97.7957 161.789 102.222 161.789C105.129 161.789 107.595 162.33 109.623 163.411C111.651 164.492 113.188 165.996 114.236 167.922C115.283 169.815 115.807 171.96 115.807 174.36V177.452H95.7343C96.275 180.561 99.1811 182.115 104.453 182.115C106.007 182.115 107.612 181.98 109.268 181.709C110.924 181.439 112.36 181.067 113.577 180.594V185.967C112.394 186.474 110.873 186.88 109.015 187.184C107.156 187.488 105.298 187.64 103.439 187.64ZM108.559 172.484C108.457 170.862 107.849 169.612 106.734 168.733C105.619 167.821 104.081 167.365 102.121 167.365C100.195 167.365 98.6743 167.821 97.5591 168.733C96.444 169.646 95.8357 170.896 95.7343 172.484H108.559ZM120.547 162.549H127.948V166.047C128.928 164.864 130.296 163.968 132.054 163.36C133.811 162.718 135.805 162.397 138.035 162.397V168.226C135.703 168.226 133.642 168.581 131.851 169.291C130.094 170 128.877 171.082 128.201 172.535V186.88H120.547V162.549Z" fill="#EC5F5F"/>
<path d="M147.624 196.916C145.799 196.916 144.279 196.73 143.062 196.359V192.354C143.941 192.692 145.022 192.861 146.306 192.861C147.489 192.861 148.418 192.557 149.094 191.949C149.77 191.374 150.378 190.428 150.919 189.11L152.085 186.271L141.44 162.549H146.712L154.822 181.253L162.375 162.549H167.646L156.697 189.617C155.684 192.151 154.467 193.993 153.048 195.142C151.662 196.325 149.854 196.916 147.624 196.916ZM178.571 187.64C175.293 187.64 172.809 186.761 171.119 185.004C169.464 183.247 168.636 180.898 168.636 177.959V162.549H173.755V177.756C173.755 181.642 175.698 183.585 179.584 183.585C182.998 183.585 185.667 182.047 187.593 178.972V162.549H192.713V186.88H187.745V183.433C186.596 184.886 185.228 185.95 183.64 186.626C182.085 187.302 180.396 187.64 178.571 187.64ZM197.255 149.421H202.375V186.88H197.255V149.421ZM202.425 174.562L213.627 162.549H219.862L208.609 174.562L221.028 186.88H214.793L202.425 174.562Z" fill="black"/>
<defs>
<radialGradient id="paint0_angular_0_262" cx="0" cy="0" r="1" gradientUnits="userSpaceOnUse" gradientTransform="translate(112.5 89.1297) rotate(90) scale(78.75)">
<stop offset="0.328125" stop-color="#EC5F5F"/>
<stop offset="0.666667" stop-color="#EC5F5F" stop-opacity="0"/>
</radialGradient>
</defs>
</svg>
