<svg width="13" height="13" viewBox="0 0 13 13" fill="none" xmlns="http://www.w3.org/2000/svg">
<path d="M6.35689 2.12004C3.24997 2.12004 0.722031 4.417 0.722031 7.24004C0.722031 10.0631 3.24997 12.36 6.35689 12.36C9.46382 12.36 11.9918 10.0631 11.9918 7.24004C11.9918 4.417 9.46382 2.12004 6.35689 2.12004ZM6.35689 11.08C4.02617 11.08 2.13075 9.3578 2.13075 7.24004C2.13075 5.12228 4.02617 3.40004 6.35689 3.40004C8.68762 3.40004 10.583 5.12228 10.583 7.24004C10.583 9.3578 8.68762 11.08 6.35689 11.08Z" fill="#8C8C8C"/>
<path d="M5.65254 4.68004H7.06125V7.88004H5.65254V4.68004ZM4.24382 0.200043H8.46997V1.48004H4.24382V0.200043Z" fill="#8C8C8C"/>
<path d="M11.4936 3.8525L10.0851 2.57267L11.0812 1.66759L12.4897 2.94741L11.4936 3.8525Z" fill="#8C8C8C"/>
</svg>
